<?xml version="1.0" encoding="UTF-8" standalone="no"?>
<!DOCTYPE svg PUBLIC "-//W3C//DTD SVG 1.1//EN" "http://www.w3.org/Graphics/SVG/1.1/DTD/svg11.dtd">
<svg width="100%" height="100%" viewBox="0 0 128 128" version="1.1" xmlns="http://www.w3.org/2000/svg" xmlns:xlink="http://www.w3.org/1999/xlink" xml:space="preserve" xmlns:serif="http://www.serif.com/" style="fill-rule:evenodd;clip-rule:evenodd;stroke-linecap:round;stroke-linejoin:round;stroke-miterlimit:1.5;">
    <g transform="matrix(1,0,0,1,-0.217794,-0.217794)">
        <g transform="matrix(0.951024,0,0,0.951024,3.134461,3.134461)">
            <circle cx="64" cy="64" r="64" style="fill:none;stroke:url(#_Linear1);stroke-width:6.13px;"/>
        </g>
        <g transform="matrix(5.032787,0,0,4.782117,28.577785,19.616392)">
            <ellipse cx="5.585" cy="12.331" rx="2.778" ry="1.631" style="fill:rgb(235,235,235);fill-opacity:0;stroke:rgb(141,165,243);stroke-width:1.19px;"/>
        </g>
        <g transform="matrix(3.466519,0,0,4.037304,46.095925,19.114961)">
            <ellipse cx="12.146" cy="9.564" rx="3.113" ry="1.564" style="fill:rgb(235,235,235);fill-opacity:0;stroke:rgb(113,255,128);stroke-width:1.55px;"/>
        </g>
        <g transform="matrix(5.032787,0,0,4.782117,33.668832,16.891054)">
            <path d="M7.352,12.901L7.352,3.12" style="fill:none;stroke:rgb(141,165,243);stroke-width:1.19px;"/>
        </g>
        <g transform="matrix(3.466519,0,0,4.037304,48.120891,20.898133)">
            <path d="M14.675,9.122L14.675,0.898L12.162,2.358" style="fill:none;stroke:rgb(113,255,128);stroke-width:1.55px;"/>
        </g>
        <g transform="matrix(3.328319,0,0,3.774531,-1.056517,15.038211)">
            <ellipse cx="12.146" cy="9.564" rx="3.113" ry="1.564" style="fill:rgb(235,235,235);fill-opacity:0;stroke:rgb(252,115,115);stroke-width:1.64px;"/>
        </g>
        <g transform="matrix(3.328319,0,0,3.774531,0.887719,16.705324)">
            <path d="M14.675,9.122L14.675,0.898L12.195,1.929" style="fill:none;stroke:rgb(252,115,115);stroke-width:1.64px;"/>
        </g>
        <g transform="matrix(4.245672,0.367774,0.387052,4.601269,38.247806,14.751558)">
            <path d="M7.352,3.12L3.904,4.816" style="fill:none;stroke:rgb(141,165,243);stroke-width:1.21px;"/>
        </g>
        <g transform="matrix(14.893808,0,0,14.893808,83.568474,107.512425)">
        </g>
        <text x="43.6px" y="107.512px" style="font-family:'ComicSansMS', 'Comic Sans MS', cursive;font-size:14.894px;fill:url(#_Linear2);">Music</text>
    </g>
    <defs>
        <linearGradient id="_Linear1" x1="0" y1="0" x2="1" y2="0" gradientUnits="userSpaceOnUse" gradientTransform="matrix(128,0,0,128,0,64)"><stop offset="0" style="stop-color:rgb(252,115,115);stop-opacity:1"/><stop offset="0.5" style="stop-color:rgb(143,164,240);stop-opacity:1"/><stop offset="1" style="stop-color:rgb(113,255,128);stop-opacity:1"/></linearGradient>
        <linearGradient id="_Linear2" x1="0" y1="0" x2="1" y2="0" gradientUnits="userSpaceOnUse" gradientTransform="matrix(38.550817,0,0,38.550817,44.41405,102.236323)"><stop offset="0" style="stop-color:rgb(250,116,118);stop-opacity:1"/><stop offset="0.5" style="stop-color:rgb(141,165,243);stop-opacity:1"/><stop offset="1" style="stop-color:rgb(113,255,128);stop-opacity:1"/></linearGradient>
    </defs>
</svg>
